**ABCDEFGHIJKLMNOPQRSTUVWXYZabcdefghijklmnopqrstuvwxyz**************************
**PARASOLID !"#$%&'()*+,-./:;<=>?@[\]^_`{|}~0123456789**************************
**PART1;
MC=AMD64;
MC_MODEL=Intel64 Family 6 Model 78 Stepping 3, GenuineIntel;
MC_ID=unknown;
OS=Windows_NT;
OS_RELEASE=unknown;
FRU=Parasolid Version 31.1, build 290,  3- 9-2020;
APPL=SOLIDWORKS 2020-2020296;
SITE=;
USER=unknown;
FORMAT=text;
GUISE=transmit;
KEY=OUTPUT SHAFT+;
FILE=OUTPUT SHAFT+.x_t;
DATE=Mon Mar 16 21:19:54 2026;
**PART2;
SCH=SCH_3101290_31100;
USFLD_SIZE=0;
**PART3;
**END_OF_HEADER*****************************************************************
T51 : TRANSMIT FILE created by modeller version 310129023 SCH_3101290_31100_1300
6222 0 12 34 CCCCCCI4 mesh1006 0 I8 polyline1008 0 CCCCCCCDI5 owner1040 0 CCCCCC
I13 boundary_mesh1006 0 I17 boundary_polyline1008 0 CCCA16 index_map_offset0 0 1
 dA9 index_map82 0 A17 node_id_index_map82 0 A20 schema_embedding_map82 0 A5 chi
ld12 0 A14 lowest_node_id0 0 1 dA16 mesh_offset_data206 0 Z1 598 2 3 0 0 0 0 0 0
 1e3 1e-8 0 4 0 1 0 1 1 5 6 7 0 0 0 8 9 0 0 0 0 0 0 0 0 81 255 2 2 581 10 1 11 0
 0 0 0 12 70 11 CI9 list_type0 0 1 uI10 notransmit0 0 1 lCCCDCCDI12 finger_index
0 0 1 dI12 finger_block1012 0 CZ3 0 4 T1 0 0 9 20 1 13 13 13 255 5 118 0 1 0 14
 0 0 15 0 52 255 6 490 16 17 18 0 0 +0 0 0 1 0 0 .0037 .707106781186554 .7071067
81186541 0 0 -1 31 255 7 459 0 9 19 0 0 -.000299999999999972 0 0 -1 0 0 0 0 1 .0
04 19 8 CCCCCCCA5 owner12 0 Z8 122 0 1 15 0 20 V0 16 255 9 456 0 ?21 0 22 7 0 0
 1 17 255 21 0 23 21 21 0 24 9 0 0 +16 22 450 0 ?25 9 26 19 0 0 1 17 25 0 27 25
 25 0 28 22 0 0 +16 26 444 0 ?29 22 30 31 0 0 1 31 19 453 0 22 31 7 0 +0 0 0 -1
 0 0 0 0 1 .0037 31 31 447 0 26 32 19 0 -.09 0 0 -1 0 0 0 0 1 .0037 31 32 441 0
 30 33 31 0 +.0897 0 0 -1 0 0 0 0 1 .004 16 30 438 0 ?34 26 35 32 0 0 1 31 33 35
3 0 35 36 32 0 -.012 0 0 1 0 0 0 0 -1 .0042 16 35 350 0 ?37 30 38 33 0 0 1 31 36
 346 0 38 39 33 0 -.01 0 0 -1 0 0 0 0 1 .0042 16 38 343 0 ?40 35 41 36 0 0 1 31
 39 340 0 41 42 36 0 +.0098 0 0 -1 0 0 0 0 1 .004 16 41 337 0 ?43 38 44 39 0 0 1
 31 42 334 0 44 45 39 0 +.0422 0 0 1 0 0 0 0 -1 .004 16 44 331 0 ?46 41 47 42 0
 0 1 31 45 327 0 47 48 42 0 -.042 0 0 1 0 0 0 0 -1 .0042 16 47 324 0 ?49 44 50 4
5 0 0 1 31 48 320 0 50 51 45 0 -.04 0 0 -1 0 0 0 0 1 .0042 16 50 317 0 ?52 47 53
 48 0 0 1 31 51 314 0 53 54 48 0 +.0398 0 0 -1 0 0 0 0 1 .004 16 53 311 0 ?55 50
 56 51 0 0 1 31 54 308 0 56 57 51 0 +.0122 0 0 1 0 0 0 0 -1 .004 16 56 305 0 ?58
 53 59 54 0 0 1 31 57 202 0 59 60 54 0 +.042 0 0 -1 0 0 0 0 1 .0045 16 59 151 0
 ?61 56 62 57 0 0 1 31 60 201 0 62 63 57 0 +.04 0 0 -1 0 0 0 0 1 .0045 16 62 146
 0 ?64 59 65 60 0 0 1 31 63 198 0 65 66 60 0 +.012 0 0 -1 0 0 0 0 1 .0045 16 65
 131 0 ?67 62 68 63 0 0 1 31 66 197 0 68 0 63 0 +.01 0 0 -1 0 0 0 0 1 .0045 16 6
8 126 0 ?69 65 0 66 0 0 1 17 69 0 70 69 69 0 71 68 0 0 +15 255 70 258 0 69 72 0
 17 71 0 73 71 71 0 69 68 0 0 -15 73 133 0 71 74 0 14 255 74 134 75 ?72 76 77 5
 78 +0 0 72 76 20 81 1 75 582 79 74 80 0 0 81 82 14 72 129 81 ?83 74 84 5 85 +0
 0 83 74 20 14 76 139 86 ?74 87 88 5 89 +0 0 74 87 20 15 77 259 0 67 74 73 51 25
5 78 186 0 74 85 89 0 +0 0 0 -1 0 0 .0045 0 0 1 13 20 121 0 0 0 0 0 0 8 14 14 14
 182 90 ?91 0 23 5 92 +0 0 91 0 20 81 1 90 585 79 14 93 0 86 94 95 14 91 179 94
 ?96 14 27 5 97 +0 0 96 14 20 15 23 457 0 21 14 98 51 92 195 0 14 97 99 0 +0 0 0
 -1 0 0 .004 0 0 1 50 255 97 194 0 91 100 92 0 +0 0 0 -1 0 0 0 0 1 54 255 99 375
 0 83 92 101 0 +.0398 0 0 -1 0 0 .0042 2e-4 0 0 1 14 83 368 102 ?103 72 104 5 99
 -0 0 103 72 20 54 101 388 0 103 99 105 0 +.0422 0 0 1 0 0 .0042 2e-4 0 0 -1 14
 103 381 106 ?107 83 108 5 101 -0 0 107 83 20 54 105 401 0 107 101 109 0 +.0098
 0 0 -1 0 0 .0042 2e-4 0 0 1 14 107 394 110 ?111 103 112 5 105 -0 0 111 103 20 5
4 109 414 0 111 105 18 0 +.0122 0 0 1 0 0 .0042 2e-4 0 0 -1 14 111 407 113 ?114
 107 115 5 109 -0 0 114 107 20 52 18 476 116 114 109 6 0 +.0897 0 0 -1 0 0 .004
 .707106781186544 .707106781186552 0 0 1 81 2 116 477 117 18 0 0 0 16 118 119 14
 114 469 120 ?17 111 121 5 18 +0 0 17 111 20 81 1 120 591 79 114 122 0 113 123 1
24 14 17 483 123 ?0 114 125 5 6 +0 0 0 114 20 15 121 470 0 126 114 127 17 126 0
 121 126 126 0 29 26 0 0 -15 127 471 0 128 114 0 17 128 0 127 128 128 0 34 30 0
 0 -17 34 0 129 34 34 0 128 30 0 0 +15 129 439 0 34 130 131 14 130 164 132 ?133
 96 129 5 134 +0 0 133 96 20 15 131 332 0 46 130 0 17 46 0 131 46 46 0 135 44 0
 0 +17 135 0 108 135 135 0 46 44 0 0 -15 108 382 0 135 103 136 15 136 383 0 137
 103 0 17 137 0 136 137 137 0 49 47 0 0 -17 49 0 138 49 49 0 137 47 0 0 +15 138
 325 0 49 133 139 14 133 159 140 ?141 130 138 5 142 +0 0 141 130 20 15 139 158 0
 143 133 0 17 143 0 139 143 143 0 61 59 0 0 -17 61 0 144 61 61 0 143 59 0 0 +15
 144 263 0 61 141 145 14 141 154 146 ?147 133 144 5 148 +0 0 147 133 20 15 145 1
53 0 149 141 0 17 149 0 145 149 149 0 64 62 0 0 -17 64 0 150 64 64 0 149 62 0 0
 +15 150 262 0 64 147 0 14 147 149 151 ?87 141 152 5 153 +0 0 87 141 20 81 1 151
 596 79 147 154 0 146 155 156 14 87 144 155 ?76 147 157 5 158 +0 0 76 147 20 15
 152 318 0 52 147 150 50 153 189 0 147 158 148 0 +.04 0 0 -1 0 0 0 0 1 51 158 18
8 0 87 89 153 0 +0 0 0 -1 0 0 .004 0 0 1 51 148 190 0 141 153 142 0 +0 0 0 -1 0
 0 .0045 0 0 1 50 142 191 0 133 148 134 0 +.042 0 0 1 0 0 0 0 -1 51 134 192 0 13
0 142 100 0 +0 0 0 -1 0 0 .004 0 0 1 50 100 193 0 96 134 97 0 +.09 0 0 -1 0 0 0
 0 1 14 96 169 159 ?130 91 160 5 100 -0 0 130 91 20 81 1 159 598 79 96 161 0 155
 0 162 15 160 445 0 29 96 0 17 29 0 160 29 29 0 126 26 0 0 +80 255 1 79 163 164
 9000 1 1 1 1 1 1 1 1 0 FFFFTFTFFFFFFF1 81 1 161 527 165 96 0 159 166 167 168 81
 1 155 597 79 87 169 0 151 159 170 82 255 1 162 3735838 81 1 169 532 165 87 0 15
5 154 171 172 82 1 170 786716 80 1 165 0 173 8001 0 0 0 0 3 5 0 0 0 FFFFTFTFFFFF
FF2 81 1 154 531 165 147 0 151 174 169 175 81 1 171 533 165 76 0 86 169 80 176 8
3 255 3 172 .752941176470588 .752941176470588 .752941176470588 81 1 86 584 79 76
 171 0 81 90 177 81 1 80 534 165 74 0 75 171 178 179 83 3 176 .752941176470588 .
752941176470588 .752941176470588 81 1 178 535 165 72 0 81 80 180 181 83 3 179 .7
52941176470588 .752941176470588 .752941176470588 81 1 81 583 79 72 178 0 75 86 1
82 81 1 180 536 165 83 0 102 178 183 184 83 3 181 .752941176470588 .752941176470
588 .752941176470588 81 1 102 587 79 83 180 0 94 106 185 81 1 183 537 165 103 0
 106 180 186 187 83 3 184 .752941176470588 .752941176470588 .752941176470588 81
 1 106 588 79 103 183 0 102 110 188 81 1 186 538 165 107 0 110 183 189 190 83 3
 187 .752941176470588 .752941176470588 .752941176470588 81 1 110 589 79 107 186
 0 106 113 191 81 1 189 539 165 111 0 113 186 122 192 83 3 190 .752941176470588
 .752941176470588 .752941176470588 81 1 113 590 79 111 189 0 110 120 193 81 1 12
2 540 165 114 0 120 189 194 195 83 3 192 .752941176470588 .752941176470588 .7529
41176470588 81 1 194 541 165 17 0 123 122 0 196 83 3 195 .752941176470588 .75294
1176470588 .752941176470588 81 1 123 592 79 17 194 0 120 132 197 83 3 196 .75294
1176470588 .752941176470588 .752941176470588 81 1 132 593 79 130 167 0 123 140 1
98 82 1 197 908460318 81 1 167 528 165 130 0 132 161 199 200 81 1 140 594 79 133
 199 0 132 146 201 82 1 198 3146014 81 1 199 529 165 133 0 140 167 174 202 81 1
 146 595 79 141 174 0 140 151 203 82 1 201 2556188 81 1 174 530 165 141 0 146 19
9 154 204 82 1 203 1966362 83 3 204 .752941176470588 .752941176470588 .752941176
470588 83 3 202 .752941176470588 .752941176470588 .752941176470588 83 3 200 .752
941176470588 .752941176470588 .752941176470588 82 1 193 682295580 82 1 191 68105
0396 82 1 188 679805212 81 1 94 586 79 91 166 0 90 102 205 82 1 185 678560028 81
 1 166 526 165 91 0 94 93 161 206 82 1 205 4915486 81 1 93 525 165 14 0 90 0 166
 207 83 3 206 .752941176470588 .752941176470588 .752941176470588 83 3 207 .75294
1176470588 .752941176470588 .752941176470588 82 1 182 -982756 82 1 177 196892 83
 3 175 .752941176470588 .752941176470588 .752941176470588 79 255 15 173 SDL/TYSA
_COLOUR83 3 168 .752941176470588 .752941176470588 .752941176470588 79 14 164 SWE
ntUnchanged50 89 187 0 76 78 158 0 +.012 0 0 1 0 0 0 0 -1 17 52 0 152 52 52 0 20
8 50 0 0 +17 208 0 104 208 208 0 52 50 0 0 -15 104 369 0 208 83 209 15 209 370 0
 210 83 0 17 210 0 209 210 210 0 55 53 0 0 -17 55 0 157 55 55 0 210 53 0 0 +15 1
57 312 0 55 87 211 15 211 306 0 58 87 0 17 58 0 211 58 58 0 212 56 0 0 +17 212 0
 115 212 212 0 58 56 0 0 -15 115 408 0 212 111 213 15 213 409 0 214 111 0 17 214
 0 213 214 214 0 37 35 0 0 -17 37 0 88 37 37 0 214 35 0 0 +15 88 351 0 37 76 215
 15 215 138 0 216 76 0 17 216 0 215 216 216 0 67 65 0 0 -17 67 0 77 67 67 0 216
 65 0 0 +82 1 156 1376540 15 125 484 0 24 17 217 17 24 0 125 24 24 0 21 9 0 0 -1
5 217 485 0 28 17 0 17 28 0 217 28 28 0 25 22 0 0 -82 1 124 907084062 80 2 117 2
18 219 8044 0 0 0 0 3 5 0 0 0 FFFFTFFFTTFFFF3 2 81 2 16 491 117 6 0 0 116 0 220
 221 84 255 6 118 BAAAAB83 3 119 -.0002999999999999945 0 .0002999999999999915 84
 6 220 BAAAAB83 3 221 0 .000299999999999972 .000299999999999972 79 17 219 SDL/TY
SA_BLEND_ID15 112 395 0 222 107 223 17 222 0 112 222 222 0 40 38 0 0 -15 223 396
 0 224 107 0 17 224 0 223 224 224 0 43 41 0 0 -17 43 0 98 43 43 0 224 41 0 0 +15
 98 338 0 43 14 0 17 40 0 84 40 40 0 222 38 0 0 +15 84 344 0 40 72 70 15 27 451
 0 25 91 0 82 1 95 5243166 50 85 185 0 72 0 78 0 +.01 0 0 -1 0 0 0 0 1 82 1 82 -
392934 19 15 117 0 1 0 8 5 S0 74 4 CI16 index_map_offset0 0 1 dCCZ20 13 9 0 0 22
5 226 159 16 227 228 11 194 2 0 0 0 0 0 0 0 0 0 0 0 81 2 225 116 229 1 0 226 0 0
 0 230 81 2 226 287 231 1 225 227 0 0 0 232 81 1 227 502 233 1 226 228 0 0 234 8
1 2 228 520 235 1 227 11 0 0 0 236 81 2 11 523 237 1 228 2 0 0 0 0 80 2 237 238
 239 9000 0 0 0 0 3 5 0 0 0 FFTFFFFFFFFFFF9 1 79 16 239 BODY_RECIPE_200180 2 235
 240 241 9000 0 0 0 0 3 5 0 0 0 FFTFFFFFFFFFFF9 1 82 1 236 1 79 24 241 BODY_IN_L
IGHTWEIGHT_PERM80 1 233 242 243 9000 1 1 1 1 1 1 1 1 0 FFTFFFFFFFFFFF1 82 1 234
 524139 79 10 243 BODY_MATCH80 2 231 244 245 9000 0 0 0 0 3 5 0 0 0 FFTFFFFFFFFF
FF9 1 82 1 232 96 79 30 245 LAST_BODY_MODIFYING_FEATURE_ID80 2 229 246 247 9000
 0 0 0 0 3 5 0 0 0 FFTFFFFFFFFFFT9 1 82 1 230 107 79 19 247 ENT_TIME_STAMP_20018
0 2 10 248 249 9000 0 0 0 0 3 5 0 0 0 FFTFFFFFFFFFFF9 1 82 1 12 101 79 12 249 AT
OM_ID_20011 0 
